<?xml version="1.0" encoding="UTF-8"?>
<svg width="512" height="512" viewBox="0 0 512 512" fill="none" xmlns="http://www.w3.org/2000/svg" role="img" aria-label="LR monogram logo">
  <!-- Background (transparent) -->
  <!-- Mark -->
  <g shape-rendering="geometricPrecision">
    <!-- Outer rounded square frame -->
    <rect x="72" y="72" width="368" height="368" rx="88" stroke="rgba(255,255,255,0.22)" stroke-width="16"/>
    <rect x="88" y="88" width="336" height="336" rx="78" stroke="rgba(255,255,255,0.10)" stroke-width="2"/>

    <!-- Accent corner -->
    <path d="M156 150 C156 124 178 102 204 102 H308 C334 102 356 124 356 150"
          stroke="#60A5FA" stroke-width="14" stroke-linecap="round" opacity="0.95"/>

    <!-- L -->
    <path d="M188 170 V340 C188 362 206 380 228 380 H314"
          stroke="white" stroke-width="34" stroke-linecap="round" stroke-linejoin="round"/>

    <!-- R stem -->
    <path d="M314 170 V380"
          stroke="white" stroke-width="34" stroke-linecap="round" stroke-linejoin="round"/>

    <!-- R bowl (geometric) -->
    <path d="M314 170 H358 C382 170 402 190 402 214 V230 C402 254 382 274 358 274 H314"
          stroke="white" stroke-width="34" stroke-linecap="round" stroke-linejoin="round"/>

    <!-- R leg (diagonal cut) -->
    <path d="M314 274 L402 380"
          stroke="white" stroke-width="34" stroke-linecap="round" stroke-linejoin="round" opacity="0.98"/>

    <!-- Subtle inner accent line -->
    <path d="M200 362 H330" stroke="rgba(96,165,250,0.55)" stroke-width="8" stroke-linecap="round"/>
  </g>
</svg>
